<?xml version="1.0" encoding="UTF-8"?>
<svg width="700pt" height="700pt" version="1.1" viewBox="0 0 700 500" xmlns="http://www.w3.org/2000/svg" xmlns:xlink="http://www.w3.org/1999/xlink">
 <g>
  <path d="m629.54 154.11c-0.078124-0.79688-0.19531-1.5859-0.33984-2.3633v-0.15234c-0.15234-0.77734-0.33984-1.543-0.55859-2.2852 0-0.066406 0-0.13281-0.054687-0.1875-0.21875-0.74219-0.48047-1.4648-0.76563-2.1875l-0.097656-0.25c-0.28516-0.69922-0.60156-1.3789-0.95312-2.0469 0-0.097657-0.097656-0.19531-0.15234-0.29688-0.35156-0.66797-0.73438-1.3125-1.0938-1.9453l-0.1875-0.27344c-0.4375-0.65625-0.90625-1.2891-1.3984-1.9023l-0.13281-0.17578c-0.55859-0.67969-1.0938-1.3242-1.75-1.9375-0.625-0.61328-1.2695-1.2031-1.9375-1.75l-0.17578-0.14062c-0.61328-0.49219-1.2461-0.96094-1.9023-1.3984l-0.28516-0.17578c-0.63281-0.41016-1.2812-0.77344-1.9375-1.0938l-0.30469-0.15234c-0.67188-0.34375-1.3477-0.66016-2.0352-0.95312l-0.27344-0.097656c-0.73047-0.28516-1.457-0.53516-2.1875-0.75391l-0.19531-0.066406c-0.74219-0.20703-1.5078-0.40625-2.2734-0.54688h-0.17578c-0.76562-0.14062-1.543-0.26172-2.3398-0.33984h-0.15234c-0.78906-0.078125-1.5742-0.10938-2.3828-0.12109h-143.6c-9.375 0-18.043 5.0039-22.73 13.125-4.6914 8.125-4.6914 18.129 0 26.25 4.6875 8.125 13.355 13.125 22.73 13.125h80.141l-135.73 135.64-111.56-111.56c-4.9219-4.9219-11.598-7.6875-18.562-7.6875-6.9609 0-13.637 2.7656-18.559 7.6875l-177.59 177.68c-4.9219 4.9219-7.6914 11.602-7.6914 18.562 0 6.9648 2.7656 13.641 7.6875 18.566 4.9219 4.9219 11.598 7.6914 18.562 7.6914 6.9609 0 13.641-2.7656 18.562-7.6875l159.08-159.09 111.56 111.56c4.9219 4.9219 11.598 7.6875 18.559 7.6875 6.9609 0 13.641-2.7656 18.562-7.6875l154.25-154.34v80.129c0 9.3789 5.0039 18.043 13.125 22.734 8.1211 4.6875 18.129 4.6875 26.25 0 8.1211-4.6914 13.125-13.355 13.125-22.734v-143.5c0-0.82031 0-1.6172-0.10938-2.418-0.007812-0.046875-0.011719-0.09375-0.011719-0.14062z"/>
 </g>
</svg>
