<?xml version="1.0" standalone="no"?>
<!DOCTYPE svg PUBLIC "-//W3C//DTD SVG 20010904//EN"
 "http://www.w3.org/TR/2001/REC-SVG-20010904/DTD/svg10.dtd">
<svg version="1.0" xmlns="http://www.w3.org/2000/svg"
 width="512.000000pt" height="512.000000pt" viewBox="0 0 512.000000 512.000000"
 preserveAspectRatio="xMidYMid meet">
<metadata>
Created by potrace 1.14, written by Peter Selinger 2001-2017
</metadata>
<g transform="translate(0.000000,512.000000) scale(0.100000,-0.100000)"
fill="#000000" stroke="none">
<path d="M4057 5114 c-1 -1 -54 -4 -117 -8 -63 -4 -128 -8 -145 -11 -16 -2
-54 -6 -84 -10 -90 -9 -274 -36 -337 -49 -12 -2 -37 -7 -56 -10 -184 -29 -532
-129 -798 -229 -230 -86 -585 -272 -775 -405 -256 -180 -370 -275 -565 -471
-430 -433 -735 -936 -939 -1550 -69 -207 -144 -513 -166 -681 -3 -19 -7 -46
-10 -60 -3 -14 -7 -43 -11 -65 -3 -22 -7 -50 -9 -63 -2 -13 -7 -53 -10 -90 -4
-37 -8 -83 -10 -102 -14 -119 -20 -266 -20 -495 1 -285 5 -315 67 -439 42 -83
63 -111 143 -189 76 -75 199 -143 305 -169 85 -20 611 -16 800 7 19 2 62 6 95
10 57 5 230 30 285 40 14 3 54 10 90 16 75 12 371 83 445 106 108 34 335 113
420 148 86 34 398 185 460 222 264 158 430 275 645 458 89 75 335 333 426 445
85 105 284 382 284 396 0 2 15 28 34 57 147 230 341 680 427 992 23 83 86 347
93 390 17 101 36 216 41 250 3 22 7 54 10 70 5 36 13 100 20 180 3 33 8 80 10
105 3 25 7 173 9 330 4 254 2 293 -15 362 -50 205 -179 362 -374 455 -108 51
-185 61 -442 60 -123 0 -224 -1 -226 -3z"/>
</g>
</svg>
